<svg width="16" height="16" viewBox="0 0 16 16" fill="none" xmlns="http://www.w3.org/2000/svg">
<g clip-path="url(#clip0_26_948)">
<path d="M6.66666 13.712C4.38066 14.4834 2.47599 13.712 1.33333 11.3334" stroke="white" stroke-width="1.5" stroke-linecap="round" stroke-linejoin="round"/>
<path d="M6.66666 14.6667V12.5054C6.66666 12.1067 6.78933 11.76 6.98666 11.4467C7.12266 11.232 7.02933 10.9267 6.78466 10.86C4.75599 10.3014 3.33333 9.40468 3.33333 6.43002C3.33333 5.65669 3.58666 4.93002 4.03199 4.29669C4.14266 4.13935 4.19866 4.06068 4.21199 3.99002C4.22533 3.91802 4.20199 3.82535 4.15533 3.63868C3.96666 2.88135 3.97933 2.07669 4.26199 1.35202C4.26199 1.35202 4.84666 1.16068 6.17799 1.99202C6.48199 2.18202 6.63399 2.27735 6.76799 2.29868C6.90199 2.32002 7.08066 2.27535 7.43799 2.18602C7.94891 2.05935 8.47362 1.99687 8.99999 2.00002C9.52636 1.99777 10.051 2.06047 10.562 2.18668C10.9193 2.27602 11.0987 2.32002 11.2327 2.29935C11.366 2.27802 11.518 2.18268 11.822 1.99269C13.1533 1.16135 13.738 1.35269 13.738 1.35269C14.0207 2.07735 14.0333 2.88202 13.8447 3.63935C13.798 3.82602 13.7753 3.91935 13.7887 3.99002C13.802 4.06068 13.8573 4.14002 13.968 4.29735C14.4133 4.93068 14.6667 5.65735 14.6667 6.43068C14.6667 9.40535 13.244 10.302 11.2153 10.8594C10.9707 10.9267 10.8773 11.232 11.0133 11.446C11.2107 11.7594 11.3333 12.106 11.3333 12.5054V14.6667" stroke="white" stroke-width="1.5" stroke-linecap="round" stroke-linejoin="round"/>
</g>
<defs>
<clipPath id="clip0_26_948">
<rect width="16" height="16" fill="white"/>
</clipPath>
</defs>
</svg>
