<svg width="22" height="23" viewBox="0 0 22 23" fill="none" xmlns="http://www.w3.org/2000/svg">
<path d="M17.875 2.875H4.125C3.76033 2.875 3.41059 3.02645 3.15273 3.29603C2.89487 3.56562 2.75 3.93125 2.75 4.3125V18.6875C2.75 19.0687 2.89487 19.4344 3.15273 19.704C3.41059 19.9735 3.76033 20.125 4.125 20.125H17.875C18.2397 20.125 18.5894 19.9735 18.8473 19.704C19.1051 19.4344 19.25 19.0687 19.25 18.6875V4.3125C19.25 3.93125 19.1051 3.56562 18.8473 3.29603C18.5894 3.02645 18.2397 2.875 17.875 2.875ZM15.8125 12.2188H11.6875V16.5312C11.6875 16.7219 11.6151 16.9047 11.4861 17.0395C11.3572 17.1743 11.1823 17.25 11 17.25C10.8177 17.25 10.6428 17.1743 10.5139 17.0395C10.3849 16.9047 10.3125 16.7219 10.3125 16.5312V12.2188H6.1875C6.00516 12.2188 5.8303 12.143 5.70136 12.0082C5.57243 11.8734 5.5 11.6906 5.5 11.5C5.5 11.3094 5.57243 11.1266 5.70136 10.9918C5.8303 10.857 6.00516 10.7812 6.1875 10.7812H10.3125V6.46875C10.3125 6.27813 10.3849 6.09531 10.5139 5.96052C10.6428 5.82573 10.8177 5.75 11 5.75C11.1823 5.75 11.3572 5.82573 11.4861 5.96052C11.6151 6.09531 11.6875 6.27813 11.6875 6.46875V10.7812H15.8125C15.9948 10.7812 16.1697 10.857 16.2986 10.9918C16.4276 11.1266 16.5 11.3094 16.5 11.5C16.5 11.6906 16.4276 11.8734 16.2986 12.0082C16.1697 12.143 15.9948 12.2188 15.8125 12.2188Z" fill="#F6D20D"/>
</svg>
