<svg width="16" height="16" viewBox="0 0 16 16" fill="none" xmlns="http://www.w3.org/2000/svg">
<path d="M5.19999 1.33331H10.8C12.9333 1.33331 14.6667 3.06665 14.6667 5.19998V10.8C14.6667 11.8255 14.2593 12.809 13.5341 13.5341C12.809 14.2593 11.8255 14.6666 10.8 14.6666H5.19999C3.06666 14.6666 1.33333 12.9333 1.33333 10.8V5.19998C1.33333 4.17448 1.74071 3.19097 2.46585 2.46583C3.19099 1.74069 4.17449 1.33331 5.19999 1.33331ZM5.06666 2.66665C4.43014 2.66665 3.81969 2.9195 3.36961 3.36959C2.91952 3.81968 2.66666 4.43013 2.66666 5.06665V10.9333C2.66666 12.26 3.73999 13.3333 5.06666 13.3333H10.9333C11.5698 13.3333 12.1803 13.0805 12.6304 12.6304C13.0805 12.1803 13.3333 11.5698 13.3333 10.9333V5.06665C13.3333 3.73998 12.26 2.66665 10.9333 2.66665H5.06666ZM11.5 3.66665C11.721 3.66665 11.933 3.75444 12.0893 3.91072C12.2455 4.067 12.3333 4.27897 12.3333 4.49998C12.3333 4.72099 12.2455 4.93295 12.0893 5.08924C11.933 5.24552 11.721 5.33331 11.5 5.33331C11.279 5.33331 11.067 5.24552 10.9107 5.08924C10.7545 4.93295 10.6667 4.72099 10.6667 4.49998C10.6667 4.27897 10.7545 4.067 10.9107 3.91072C11.067 3.75444 11.279 3.66665 11.5 3.66665ZM7.99999 4.66665C8.88405 4.66665 9.7319 5.01784 10.357 5.64296C10.9821 6.26808 11.3333 7.11592 11.3333 7.99998C11.3333 8.88403 10.9821 9.73188 10.357 10.357C9.7319 10.9821 8.88405 11.3333 7.99999 11.3333C7.11594 11.3333 6.26809 10.9821 5.64297 10.357C5.01785 9.73188 4.66666 8.88403 4.66666 7.99998C4.66666 7.11592 5.01785 6.26808 5.64297 5.64296C6.26809 5.01784 7.11594 4.66665 7.99999 4.66665ZM7.99999 5.99998C7.46956 5.99998 6.96085 6.21069 6.58578 6.58577C6.21071 6.96084 5.99999 7.46955 5.99999 7.99998C5.99999 8.53041 6.21071 9.03912 6.58578 9.41419C6.96085 9.78927 7.46956 9.99998 7.99999 9.99998C8.53043 9.99998 9.03914 9.78927 9.41421 9.41419C9.78928 9.03912 9.99999 8.53041 9.99999 7.99998C9.99999 7.46955 9.78928 6.96084 9.41421 6.58577C9.03914 6.21069 8.53043 5.99998 7.99999 5.99998Z" fill="white"/>
</svg>
